<svg viewBox="0 0 1000 480" fill="none" xmlns="http://www.w3.org/2000/svg">
  <!-- Element 1: Top speedline accent -->
  <path d="M 320 78 C 420 44, 520 37, 605 40 C 550 44, 435 52, 320 78 Z" fill="#0084d6" />

  <!-- Element 2: Main outer dynamic orbital ring / swoosh loop -->
  <path fill-rule="evenodd" clip-rule="evenodd" d="
    M 345 74 
    C 580 20, 850 32, 975 105 
    C 1010 125, 1010 165, 960 215 
    C 880 295, 750 348, 640 375 
    C 520 405, 410 408, 300 405 
    C 170 401, 70 375, 20 320 
    C -8 288, -2 245, 35 205 
    C 85 152, 195 105, 345 74 Z
    M 88 268 
    C 65 292, 70 318, 102 338 
    C 155 372, 275 378, 420 360 
    C 620 335, 820 270, 915 200 
    C 945 178, 948 152, 920 135 
    C 860 98, 710 82, 515 95 
    C 330 108, 185 155, 115 212 
    C 98 226, 88 245, 88 268 Z" fill="#0084d6" />

  <!-- Element 3: Bottom trailing accent line -->
  <path d="M 425 325 C 505 312, 595 295, 645 285 C 605 294, 510 316, 425 325 Z" fill="#0084d6" />

  <!-- Element 4: Three vertical curved blades (flames/wings) -->
  <!-- Blade 1 (Left) -->
  <path d="
    M 370 160 
    C 408 200, 428 265, 395 385 
    C 372 455, 375 478, 375 478 
    C 375 478, 355 425, 382 335 
    C 405 258, 385 205, 370 160 Z" fill="#0084d6" />

  <!-- Blade 2 (Middle) -->
  <path d="
    M 445 155 
    C 483 195, 503 260, 470 380 
    C 447 450, 450 478, 450 478 
    C 450 478, 430 425, 457 335 
    C 480 258, 460 205, 445 155 Z" fill="#0084d6" />

  <!-- Blade 3 (Right) -->
  <path d="
    M 525 155 
    C 563 195, 583 260, 550 380 
    C 527 450, 530 478, 530 478 
    C 530 478, 510 425, 537 335 
    C 560 258, 540 205, 525 155 Z" fill="#0084d6" />
</svg>
